<svg xmlns="http://www.w3.org/2000/svg" width="512" height="512" viewBox="0 0 512 512" version="1.1">
	<path d="M 216 115.654 C 213.525 115.822, 203.625 116.439, 194 117.026 C 137.241 120.488, 85.097 130.365, 61.571 142.112 C 56.013 144.887, 54.919 146.522, 57.972 147.491 C 61.439 148.592, 70 159.667, 70 163.052 C 70 165.988, 70.023 166, 76 166 L 82 166 82 179.898 C 82 193.407, 81.916 193.957, 79 199.500 C 76.591 204.080, 76 206.440, 76 211.480 C 76 217.647, 75.943 217.779, 72.750 218.970 C 54.964 225.605, 48.928 229.120, 41.201 237.344 C 34.232 244.761, 30.077 253.688, 29.305 262.906 C 28.633 270.914, 29.289 271.503, 35.300 268.288 C 37.570 267.074, 40.835 266.582, 46.539 266.595 C 53.460 266.612, 55.525 267.057, 61.378 269.796 L 68.177 272.978 74.689 271.342 C 79.604 270.108, 81.379 269.996, 81.929 270.885 C 82.330 271.534, 82.547 299.162, 82.412 332.282 L 82.167 392.500 60.083 392.769 L 38 393.038 38 398.977 L 38 404.916 90.750 405.208 C 119.763 405.369, 144.059 405.341, 144.743 405.146 C 145.713 404.869, 146.042 390.526, 146.243 339.646 L 146.500 274.500 164 274.500 L 181.500 274.500 181.763 308.391 L 182.027 342.282 176.948 341.680 C 172.513 341.155, 171.910 341.296, 172.193 342.789 C 172.435 344.062, 173.731 344.578, 177.259 344.805 L 182 345.110 182 352.055 L 182 359 185 359 L 188 359 188 351.441 C 188 346.814, 188.376 344.114, 188.970 344.481 C 189.503 344.811, 189.963 347.425, 189.993 350.290 C 190.023 353.156, 190.374 366.750, 190.774 380.500 L 191.500 405.500 332.140 405.558 L 472.781 405.616 473.390 401.169 C 474.623 392.175, 476.834 393, 451.500 393 L 429 393 429 331.500 C 429 290.557, 429.339 270, 430.015 270 C 430.573 270, 433.747 270.755, 437.067 271.678 L 443.103 273.357 449.576 270.037 C 455.158 267.174, 457.113 266.702, 463.775 266.608 C 469.048 266.534, 473.315 267.118, 477.220 268.447 C 480.366 269.518, 483.207 270.127, 483.533 269.801 C 484.694 268.640, 481.835 256.397, 478.941 250.137 C 473.186 237.689, 458.055 225.663, 440.373 219.485 L 435.247 217.694 434.756 210.828 C 434.417 206.099, 433.445 202.383, 431.632 198.889 C 429.157 194.117, 429 192.983, 429 179.830 L 429 165.844 432.250 166.067 C 439.522 166.567, 440.758 166.183, 440.259 163.574 C 439.782 161.078, 441.517 158.759, 450.500 149.888 L 454.500 145.938 452 143.995 C 447.321 140.360, 422.573 132.324, 401.235 127.512 C 378.146 122.305, 340.875 118.057, 300.500 116.031 C 282.518 115.129, 227.390 114.883, 216 115.654 M 220 132.685 C 183.531 134.363, 140.677 138.352, 119.713 142.019 C 94.260 146.472, 68.902 155.489, 73.794 158.349 C 74.182 158.576, 78.100 157.676, 82.500 156.350 C 104.171 149.816, 147.832 143.936, 205 139.851 C 226.307 138.328, 292.016 138.340, 312 139.870 C 358.160 143.404, 406.096 150.165, 426.629 156.037 C 430.404 157.117, 434.338 158, 435.369 158 C 436.962 158, 437.048 157.763, 435.939 156.427 C 433.818 153.871, 428.192 151.499, 416.500 148.230 C 389.089 140.568, 349.849 135.448, 300 133.030 C 281.417 132.129, 236.305 131.934, 220 132.685 M 152.500 161.109 C 128.583 164.555, 102.295 178.317, 91.171 193.216 C 83.630 203.315, 80.762 212.204, 84.572 213.666 C 85.883 214.169, 101.844 212.131, 109.694 210.458 C 111.123 210.153, 112.972 207.956, 114.999 204.153 C 118.411 197.752, 125.274 190.605, 131.500 186.970 C 135.484 184.643, 135.477 184.659, 129.709 190.786 C 124.519 196.299, 118.037 207.370, 119.274 208.608 C 119.971 209.304, 151.800 207.533, 152.578 206.755 C 152.938 206.395, 154.008 202.766, 154.956 198.691 C 156.696 191.205, 163.078 173.745, 163.808 174.474 C 164.025 174.692, 163.725 177.936, 163.141 181.685 C 162.558 185.433, 161.801 191.668, 161.460 195.540 C 160.922 201.642, 161.104 202.908, 162.828 205.040 C 164.778 207.451, 165.182 207.511, 183.159 208.043 C 193.246 208.342, 202.063 208.406, 202.750 208.186 C 203.438 207.966, 204 207.005, 204 206.050 C 204 203.450, 200.396 193.480, 196.998 186.680 C 195.347 183.375, 194.171 180.496, 194.386 180.281 C 194.845 179.822, 200.682 186.877, 204.308 192.275 C 205.703 194.351, 208.043 199.188, 209.509 203.025 L 212.175 210 228.087 210 C 239.081 210, 244 209.657, 244 208.890 C 244 205.978, 236.901 195.026, 230.730 188.418 C 211.363 167.680, 180.839 157.025, 152.500 161.109 M 332.460 161.448 C 310.995 164.784, 292.649 174.742, 280.730 189.524 C 275.962 195.438, 270 206.070, 270 208.660 C 270 209.720, 273.124 210, 284.977 210 C 302.001 210, 301.177 210.403, 304.401 200.500 C 306.207 194.954, 314.718 182.756, 318.013 180.993 C 319.797 180.039, 319.503 181.008, 316.140 187.181 C 311.673 195.380, 308.613 204.829, 309.596 207.389 C 310.183 208.920, 311.843 209.025, 326.873 208.491 C 348.778 207.712, 349.846 207.523, 351.136 204.196 C 352.076 201.772, 351.166 187.727, 349.439 178 C 348.514 172.788, 355.990 189.876, 358.121 197.842 C 359.816 204.182, 360.849 206.367, 362.426 206.948 C 363.567 207.369, 370.956 207.980, 378.846 208.306 L 393.191 208.898 392.556 206.366 C 391.717 203.024, 387.787 196.877, 383.348 191.963 C 379.074 187.233, 379.638 186.967, 385.455 190.969 C 390.781 194.634, 394.373 198.829, 397.549 205.096 C 399.548 209.041, 400.573 210.004, 403.243 210.448 C 405.034 210.746, 410.724 211.692, 415.887 212.549 C 421.050 213.407, 425.887 213.874, 426.637 213.586 C 428.625 212.823, 428.305 208.261, 425.917 203.328 C 423.175 197.665, 411.290 185.022, 403.447 179.425 C 390.165 169.947, 372.404 163.241, 354.702 161.022 C 344.911 159.794, 342.842 159.834, 332.460 161.448 M 118.500 216.616 C 83.022 220.348, 59.529 228.447, 46.388 241.478 C 41.472 246.353, 36 254.168, 36 256.314 C 36 256.530, 38.348 256.098, 41.218 255.354 C 48.126 253.562, 57.292 253.640, 64.032 255.548 C 74.619 258.546, 78.265 258.520, 85.708 255.394 C 92.092 252.713, 93.340 252.543, 106.500 252.559 C 119.041 252.574, 121.334 252.857, 128.500 255.275 C 138.514 258.654, 142.462 258.657, 152.500 255.295 C 159.580 252.923, 162.052 252.612, 174 252.591 C 186.306 252.570, 188.195 252.817, 195.358 255.382 C 203.621 258.340, 204.465 258.345, 215 255.503 C 222.770 253.407, 240.444 253.868, 248.453 256.376 C 251.178 257.229, 253.539 257.795, 253.700 257.633 C 254.621 256.712, 250.438 246.440, 246.933 241.018 L 242.839 234.683 244.457 231.092 C 245.347 229.116, 246.170 225.475, 246.287 223 L 246.500 218.500 232.626 218.221 C 219.112 217.949, 218.765 217.995, 219.282 219.971 C 219.574 221.087, 219.665 222, 219.485 222 C 219.305 222, 215.246 221.071, 210.465 219.936 C 198.221 217.027, 182.175 215.042, 170.728 215.020 L 160.956 215 157.957 219.729 C 156.307 222.330, 154.208 226.943, 153.292 229.979 C 150.721 238.504, 149.670 238.511, 150.337 230 C 150.661 225.875, 151.226 220.813, 151.593 218.750 L 152.262 215 141.881 215.124 C 136.171 215.193, 125.650 215.864, 118.500 216.616 M 319 216.513 C 313.775 217.232, 306.435 218.536, 302.688 219.410 C 294.291 221.370, 293 221.388, 293 219.545 C 293 217.371, 287.561 216.737, 276.925 217.672 L 267.500 218.500 267.639 223.763 C 267.715 226.658, 268.294 229.649, 268.925 230.410 C 269.831 231.501, 269.241 232.756, 266.137 236.341 C 261.833 241.315, 257.389 249.688, 256.405 254.679 L 255.778 257.858 263.139 255.912 C 267.188 254.842, 274.100 253.692, 278.500 253.357 C 286.403 252.754, 288.138 253.029, 302.749 257.200 C 306.613 258.303, 307.793 258.145, 315.749 255.456 C 323.816 252.731, 325.594 252.502, 338.500 252.525 C 351.136 252.548, 353.257 252.816, 360.271 255.275 C 370.008 258.689, 373.823 258.687, 385.312 255.258 C 393.172 252.912, 396.235 252.522, 406.500 252.561 C 417.616 252.603, 419.099 252.844, 426.636 255.832 L 434.772 259.057 443.636 256.445 C 451.228 254.207, 453.720 253.912, 461 254.390 C 465.675 254.696, 470.777 255.244, 472.338 255.607 L 475.177 256.267 473.082 252.161 C 463.087 232.568, 433.634 220.208, 387 216.036 C 376.562 215.102, 360.982 214.631, 361.012 215.250 C 361.018 215.387, 361.688 217.975, 362.500 221 C 363.312 224.025, 363.967 228.975, 363.955 232 L 363.935 237.500 362.201 232.487 C 359.929 225.916, 355.528 218.483, 352.762 216.546 C 349.991 214.605, 332.988 214.588, 319 216.513 M 246 273.311 L 238.500 275.500 238.241 329.250 C 238.020 375.258, 238.188 383, 239.410 383 C 240.194 383, 241.548 383.273, 242.418 383.607 C 243.848 384.156, 244 379.133, 244 331.224 L 244 278.233 246.250 277.630 C 247.488 277.299, 248.725 277.021, 249 277.014 C 249.275 277.007, 249.623 302.256, 249.773 333.123 L 250.046 389.245 247.773 388.571 C 242.702 387.065, 238.244 386.796, 237.530 387.952 C 237.128 388.602, 237.007 389.340, 237.260 389.593 C 237.816 390.150, 257.307 395.027, 257.640 394.693 C 257.841 394.492, 258.249 277.646, 258.066 272.750 C 257.979 270.449, 255.393 270.570, 246 273.311 M 130.126 274.348 C 129.302 275.341, 129.033 280.940, 129.226 293.132 C 129.488 309.742, 129.587 310.500, 131.500 310.500 C 133.428 310.500, 133.500 309.833, 133.500 292.083 C 133.500 273.716, 132.969 270.923, 130.126 274.348 M 188 306.500 C 188 332.189, 188.267 339.078, 189.250 338.750 C 191.069 338.144, 191.069 274.856, 189.250 274.250 C 188.267 273.922, 188 280.811, 188 306.500 M 378 291.833 C 378 301.642, 378.269 309.936, 378.598 310.264 C 378.927 310.593, 379.827 310.620, 380.598 310.324 C 381.728 309.890, 382 306.321, 382 291.893 C 382 274.667, 381.925 274, 380 274 C 378.075 274, 378 274.667, 378 291.833 M 205 275.706 C 204.175 276.008, 202.488 277.176, 201.250 278.302 C 199.016 280.334, 199 280.553, 199 309.206 C 199 333.934, 199.215 338.145, 200.500 338.638 C 201.423 338.993, 202 340.511, 202 342.588 C 202 346.365, 203.991 347.414, 210.046 346.824 C 212.642 346.571, 213.494 345.954, 213.943 344 C 214.259 342.625, 214.514 327.400, 214.509 310.167 L 214.500 278.833 212.139 276.917 C 209.782 275.003, 207.830 274.672, 205 275.706 M 322.455 277.455 C 320.092 279.818, 320 280.411, 320 293.373 C 320 300.778, 320.265 307.527, 320.589 308.370 C 320.931 309.262, 323.025 310.181, 325.589 310.566 C 329.353 311.130, 330 311.569, 330 313.559 C 330 315.631, 329.471 315.924, 325.250 316.195 L 320.500 316.500 320.500 332 L 320.500 347.500 335.493 347.778 C 348.715 348.023, 350.634 347.853, 351.743 346.337 C 353.482 343.959, 353.488 320.025, 351.750 317.735 C 350.950 316.681, 348.698 315.981, 345.500 315.793 C 341.281 315.546, 340.453 315.169, 340.198 313.380 C 339.864 311.043, 342.109 310.037, 347.715 310.014 C 349.860 310.005, 351.274 309.357, 351.965 308.066 C 353.402 305.381, 353.298 282.428, 351.837 279.684 C 349.645 275.570, 347.949 275.065, 336.205 275.032 C 325.524 275.002, 324.775 275.134, 322.455 277.455 M 363.096 276.384 C 362.311 277.330, 362.035 282.783, 362.224 293.634 L 362.500 309.500 365.750 309.813 L 369 310.127 369 294.145 C 369 285.355, 368.727 277.452, 368.393 276.582 C 367.644 274.631, 364.644 274.519, 363.096 276.384 M 111.655 278.250 C 109.353 280.358, 109.160 281.339, 108.595 293.746 C 108.033 306.109, 108.126 307.126, 109.996 308.996 C 111.324 310.324, 113.331 311, 115.943 311 C 122.247 311, 123 309.071, 123 292.932 C 123 281.005, 122.772 279.104, 121.171 277.655 C 118.614 275.340, 114.555 275.594, 111.655 278.250 M 299.039 278.189 C 297.192 280.171, 297 281.672, 297 294.117 C 297 305.275, 297.295 308.152, 298.571 309.429 C 300.450 311.307, 307.340 311.525, 308.743 309.750 C 309.286 309.063, 309.989 302.149, 310.304 294.386 C 310.776 282.799, 310.611 279.889, 309.383 278.136 C 307.335 275.213, 301.785 275.241, 299.039 278.189 M 389.523 277.359 C 387.913 278.537, 387.603 280.541, 387.202 292.337 C 386.650 308.632, 387.496 311, 393.868 311 C 400.315 311, 401 309.380, 401 294.126 C 401 281.427, 400.904 280.813, 398.545 278.455 C 395.814 275.723, 392.338 275.301, 389.523 277.359 M 110.984 316.812 C 108.615 318.730, 108.505 319.333, 108.306 331.501 C 108.106 343.703, 108.190 344.281, 110.503 346.594 C 112.121 348.212, 114.047 349, 116.383 349 C 122.407 349, 123 347.531, 123 332.620 C 123 317.789, 122.471 316.275, 116.974 315.383 C 114.340 314.956, 112.832 315.316, 110.984 316.812 M 390.400 315.765 C 387.744 317.539, 387 321.379, 387 333.312 C 387 347.503, 387.500 348.532, 394.302 348.353 C 400.396 348.194, 401 346.719, 401 331.997 C 401 320.679, 400.790 319.151, 398.961 317.189 C 396.954 315.035, 392.583 314.308, 390.400 315.765 M 129.497 319.250 C 129.171 321.038, 129.038 328.125, 129.202 335 C 129.490 347.098, 129.572 347.510, 131.750 347.820 L 134 348.139 134 332.070 C 134 316.791, 133.904 316, 132.045 316 C 130.628 316, 129.927 316.894, 129.497 319.250 M 298.557 318.223 C 297.347 319.949, 297 323.262, 297 333.068 C 297 347.124, 297.781 349, 303.638 349 C 309.404 349, 309.865 347.863, 310.170 332.871 C 310.486 317.275, 310.015 316, 303.934 316 C 301.120 316, 299.703 316.585, 298.557 318.223 M 362.466 317.229 C 362.178 317.979, 362.068 325.096, 362.221 333.046 L 362.500 347.500 365.500 347.500 L 368.500 347.500 368.500 332 L 368.500 316.500 365.744 316.183 C 364.096 315.993, 362.778 316.414, 362.466 317.229 M 377.931 318.677 C 377.299 344.736, 377.449 347.500, 379.500 347.500 C 381.414 347.500, 381.500 346.833, 381.500 332.014 C 381.500 318.060, 381.327 316.494, 379.750 316.190 C 378.428 315.936, 377.983 316.545, 377.931 318.677" stroke="none" fill="black" fill-rule="evenodd"/>
</svg>